<svg xmlns="http://www.w3.org/2000/svg" height="512pt" version="1.1" viewBox="-61 0 512 512" width="512pt">
<g id="surface1">
<path d="M 195 91 C 221.703125 91 247.222656 96.574219 271.003906 106.292969 C 280.449219 82.78125 293.835938 45.320312 298.167969 35.851562 C 301.894531 29.007812 299.753906 20.492188 293.320312 16.195312 C 260.917969 -5.398438 219.082031 -5.398438 186.679688 16.195312 C 164.382812 31.046875 135.613281 31.046875 113.320312 16.195312 C 107.109375 12.0625 98.757812 13.117188 93.765625 18.726562 C 88.796875 24.339844 88.738281 32.746094 93.617188 38.445312 C 99.457031 45.265625 101.402344 57.660156 119.714844 105.996094 C 143.296875 96.460938 168.566406 91 195 91 Z M 195 91 " style=" stroke:none;fill-rule:nonzero;fill:rgb(0%,0%,0%);fill-opacity:1;" />
<path d="M 0 346 C 0 421.277344 33.839844 512 195 512 C 356.160156 512 390 421.277344 390 346 C 390 221.929688 302.519531 121 195 121 C 87.480469 121 0 221.929688 0 346 Z M 195 331 C 170.1875 331 150 310.8125 150 286 C 150 266.46875 162.578125 249.976562 180 243.761719 L 180 226 C 180 217.710938 186.710938 211 195 211 C 203.289062 211 210 217.710938 210 226 L 210 243.761719 C 227.421875 249.976562 240 266.46875 240 286 C 240 294.289062 233.289062 301 225 301 C 216.710938 301 210 294.289062 210 286 C 210 277.722656 203.277344 271 195 271 C 186.722656 271 180 277.722656 180 286 C 180 294.277344 186.722656 301 195 301 C 219.8125 301 240 321.1875 240 346 C 240 365.53125 227.421875 382.023438 210 388.238281 L 210 406 C 210 414.289062 203.289062 421 195 421 C 186.710938 421 180 414.289062 180 406 L 180 388.238281 C 162.578125 382.023438 150 365.53125 150 346 C 150 337.710938 156.710938 331 165 331 C 173.289062 331 180 337.710938 180 346 C 180 354.277344 186.722656 361 195 361 C 203.277344 361 210 354.277344 210 346 C 210 337.722656 203.277344 331 195 331 Z M 195 331 " style=" stroke:none;fill-rule:nonzero;fill:rgb(0%,0%,0%);fill-opacity:1;" />
</g>
</svg>