<?xml version="1.0" encoding="iso-8859-1"?>
<!-- Generator: Adobe Illustrator 19.0.0, SVG Export Plug-In . SVG Version: 6.00 Build 0)  -->
<svg version="1.1" id="Capa_1" xmlns="http://www.w3.org/2000/svg" xmlns:xlink="http://www.w3.org/1999/xlink" x="0px" y="0px"
	 viewBox="0 0 512 512" style="enable-background:new 0 0 512 512;" xml:space="preserve">
<g>
	<g>
		<path d="M498.577,419.298L339.226,259.947c12.295-24.273,19.235-51.698,19.235-80.717C358.46,80.402,278.059,0,179.231,0
			S0,80.402,0,179.23s80.403,179.231,179.231,179.231c29.019,0,56.445-6.94,80.717-19.235l159.351,159.351
			c17.897,17.899,46.864,17.897,64.76,0l14.517-14.517C516.475,466.161,516.474,437.195,498.577,419.298z M179.23,328.461
			c-82.286,0-149.231-66.944-149.231-149.231c0-82.286,66.945-149.231,149.231-149.231c82.285,0,149.23,66.945,149.23,149.231
			S261.515,328.461,179.23,328.461z"/>
	</g>
</g>
<g>
</g>
<g>
</g>
<g>
</g>
<g>
</g>
<g>
</g>
<g>
</g>
<g>
</g>
<g>
</g>
<g>
</g>
<g>
</g>
<g>
</g>
<g>
</g>
<g>
</g>
<g>
</g>
<g>
</g>
</svg>
