<?xml version="1.0" encoding="iso-8859-1"?>
<!-- Generator: Adobe Illustrator 18.0.0, SVG Export Plug-In . SVG Version: 6.00 Build 0)  -->
<!DOCTYPE svg PUBLIC "-//W3C//DTD SVG 1.1//EN" "http://www.w3.org/Graphics/SVG/1.1/DTD/svg11.dtd">
<svg version="1.1" id="Capa_1" xmlns="http://www.w3.org/2000/svg" xmlns:xlink="http://www.w3.org/1999/xlink" x="0px" y="0px"
	 viewBox="0 0 60 60" style="enable-background:new 0 0 60 60;" xml:space="preserve">
<g>
	<path d="M12,31.5c-1.654,0-3,1.346-3,3v12c0,1.654,1.346,3,3,3s3-1.346,3-3v-12C15,32.846,13.654,31.5,12,31.5z"/>
	<path d="M24,31.5c-1.654,0-3,1.346-3,3v5c0,1.654,1.346,3,3,3s3-1.346,3-3v-5C27,32.846,25.654,31.5,24,31.5z"/>
	<path d="M51.414,23.5L34.953,7.039C34.717,4.501,32.599,2.5,30,2.5s-4.717,2.001-4.953,4.539L8.586,23.5H0v34h60v-34H51.414z
		 M30,4.5c1.654,0,3,1.346,3,3s-1.346,3-3,3s-3-1.346-3-3S28.346,4.5,30,4.5z M25.42,9.494C26.193,11.26,27.952,12.5,30,12.5
		s3.807-1.24,4.58-3.006L48.586,23.5H11.414L25.42,9.494z M17,46.5c0,2.757-2.243,5-5,5s-5-2.243-5-5v-12c0-2.757,2.243-5,5-5
		s5,2.243,5,5V46.5z M29,39.5c0,2.757-2.243,5-5,5c-1.13,0-2.162-0.391-3-1.026V50.5c0,0.553-0.448,1-1,1s-1-0.447-1-1v-11v-5
		c0-2.757,2.243-5,5-5s5,2.243,5,5V39.5z M40,39.5c0.552,0,1,0.447,1,1s-0.448,1-1,1h-7v8h7c0.552,0,1,0.447,1,1s-0.448,1-1,1h-8
		c-0.552,0-1-0.447-1-1v-20c0-0.553,0.448-1,1-1h8c0.552,0,1,0.447,1,1s-0.448,1-1,1h-7v8H40z M53,50.5
		c0,0.003-0.002,0.005-0.002,0.009c-0.001,0.106-0.029,0.208-0.062,0.308c-0.008,0.024-0.006,0.052-0.016,0.075
		c-0.032,0.075-0.087,0.137-0.137,0.203c-0.028,0.037-0.045,0.081-0.077,0.114c-0.025,0.026-0.063,0.039-0.091,0.061
		c-0.073,0.059-0.147,0.118-0.235,0.154c-0.003,0.001-0.005,0.004-0.008,0.005C52.25,51.478,52.124,51.5,52,51.5h0h0l-0.001,0
		c-0.12,0-0.235-0.029-0.346-0.07c-0.035-0.013-0.065-0.03-0.098-0.046c-0.074-0.037-0.142-0.083-0.205-0.138
		c-0.027-0.024-0.054-0.045-0.079-0.071c-0.066-0.071-0.12-0.152-0.164-0.243c-0.009-0.018-0.022-0.032-0.03-0.051
		c-0.001-0.003-0.004-0.006-0.005-0.009L45,35.693V50.5c0,0.553-0.448,1-1,1s-1-0.447-1-1v-20c0-0.003,0.002-0.006,0.002-0.009
		c0.001-0.106,0.029-0.207,0.062-0.306c0.008-0.025,0.007-0.053,0.017-0.077c0.031-0.072,0.084-0.13,0.13-0.193
		c0.03-0.04,0.048-0.088,0.084-0.123c0.025-0.025,0.061-0.037,0.088-0.06c0.074-0.06,0.149-0.119,0.238-0.156
		c0.003-0.001,0.005-0.004,0.008-0.005c0.064-0.026,0.13-0.024,0.195-0.036C43.883,29.525,43.937,29.5,44,29.5
		c0.003,0,0.005,0.002,0.009,0.002c0.11,0.001,0.216,0.028,0.318,0.064c0.021,0.007,0.045,0.005,0.065,0.014
		c0.083,0.035,0.154,0.095,0.225,0.152c0.029,0.023,0.066,0.036,0.092,0.063c0.025,0.025,0.038,0.062,0.06,0.09
		c0.059,0.074,0.119,0.148,0.155,0.237c0.001,0.003,0.004,0.005,0.005,0.008L51,45.307V30.5c0-0.553,0.448-1,1-1s1,0.447,1,1V50.5z"
		/>
</g>
<g>
</g>
<g>
</g>
<g>
</g>
<g>
</g>
<g>
</g>
<g>
</g>
<g>
</g>
<g>
</g>
<g>
</g>
<g>
</g>
<g>
</g>
<g>
</g>
<g>
</g>
<g>
</g>
<g>
</g>
</svg>
