<?xml version="1.0" encoding="iso-8859-1"?>
<!-- Generator: Adobe Illustrator 19.0.0, SVG Export Plug-In . SVG Version: 6.00 Build 0)  -->
<svg version="1.1" id="Capa_1" xmlns="http://www.w3.org/2000/svg" xmlns:xlink="http://www.w3.org/1999/xlink" x="0px" y="0px"
	 viewBox="0 0 512 512" style="enable-background:new 0 0 512 512;" xml:space="preserve">
<g>
	<g>
		<path d="M195,421.989H75c-41.367,0-75,33.647-75,75c0,8.291,6.709,15,15,15h240c8.291,0,15-6.709,15-15
			C270,455.636,236.367,421.989,195,421.989z"/>
	</g>
</g>
<g>
	<g>
		<path d="M302.257,239.626l-66.899,66.901c60.355,64.7,103.476,107.809,123.039,131.286l79.387-79.378
			C414.034,338.706,366.801,299.84,302.257,239.626z"/>
	</g>
</g>
<g>
	<g>
		<path d="M354.757,81.227v-0.3l-64.501-64.501c-22.139-21.639-59.45-22.857-82.8,2.1c-7.18,7.779-10.373,15.594-15.901,26.398
			l135.601,135.603c10.303-5.152,18.344-8.424,26.403-15.901C376.752,142.202,378.446,104.914,354.757,81.227z"/>
	</g>
</g>
<g>
	<g>
		<path d="M43.918,194.258c-9.756,5.018-18.364,8.644-25.499,16.8c-22.242,20.81-25.991,58.055-2.098,82.5l64.196,64.499
			c23.142,22.477,59.688,19.817,82.2-2.699c8.304-8.304,11.362-15.517,16.501-25.8C174.751,324.747,51.939,201.706,43.918,194.258z"
			/>
	</g>
</g>
<g>
	<g>
		<path d="M175.318,70.959L69.421,177.158l127.2,127.2c95.977-95.996,76.557-76.671,106.197-105.899L175.318,70.959z"/>
	</g>
</g>
<g>
	<g>
		<path d="M510.037,427.915c-5.735-24.102-23.452-43.777-46.49-52.822L375,463.633c8.804,23.035,28.74,40.745,52.837,46.483
			c25.597,5.683,47.396-1.796,63.904-18.301C508.836,474.417,515.739,451.316,510.037,427.915z"/>
	</g>
</g>
<g>
</g>
<g>
</g>
<g>
</g>
<g>
</g>
<g>
</g>
<g>
</g>
<g>
</g>
<g>
</g>
<g>
</g>
<g>
</g>
<g>
</g>
<g>
</g>
<g>
</g>
<g>
</g>
<g>
</g>
</svg>
